<svg width="473" height="382" viewBox="0 0 473 382" fill="none" xmlns="http://www.w3.org/2000/svg">
<path d="M317.594 11.2666L346.602 39.2633L375.757 197.086H102.283L317.594 11.2666Z" fill="#FFCF2D"/>
<path d="M346.852 39.0439L317.756 10.9593L322.622 5.90229C329.79 -1.54395 342.704 -0.693787 350.15 6.4593C357.596 13.627 358.901 26.5407 351.733 33.9869L346.852 39.0439Z" fill="white" stroke="#FFCF2D" stroke-width="0.406086" stroke-miterlimit="10" stroke-linecap="round"/>
<path d="M351.718 33.987L322.607 5.90234" stroke="#FFCF2D" stroke-width="0.406086" stroke-miterlimit="10" stroke-linecap="round"/>
<path d="M351.747 7.73493L355.001 5.24308C359.369 1.90106 365.643 2.78054 368.912 7.2219L448.885 104.58L407.946 195.885" stroke="#3FB1B5" stroke-width="0.406086" stroke-miterlimit="10" stroke-linecap="round"/>
<path d="M447.581 109.549C450.058 109.549 452.066 107.541 452.066 105.063C452.066 102.586 450.058 100.578 447.581 100.578C445.104 100.578 443.096 102.586 443.096 105.063C443.096 107.541 445.104 109.549 447.581 109.549Z" fill="white" stroke="#FFCF2D" stroke-width="0.406086" stroke-miterlimit="10" stroke-linecap="round"/>
<path d="M396.572 185.682H418.427C424.715 185.682 429.801 190.783 429.801 197.056V197.379H385.183V197.056C385.197 190.783 390.284 185.682 396.572 185.682Z" fill="white" stroke="#FFCF2D" stroke-width="0.406086" stroke-miterlimit="10" stroke-linecap="round"/>
<path d="M290.696 164.091H152.339C147.136 164.091 142.929 159.884 142.929 154.68V57.9085C142.929 52.7049 147.136 48.498 152.339 48.498H290.696C295.899 48.498 300.106 52.7049 300.106 57.9085V154.666C300.121 159.869 295.899 164.091 290.696 164.091Z" fill="white" stroke="#3FB1B5" stroke-width="0.406086" stroke-miterlimit="10" stroke-linecap="round"/>
<path d="M290.784 155.091H153.761C151.724 155.091 150.082 153.435 150.082 151.412V58.8325C150.082 56.795 151.738 55.1533 153.761 55.1533H290.784C292.821 55.1533 294.463 56.8097 294.463 58.8325V151.397C294.478 153.435 292.821 155.091 290.784 155.091Z" fill="#66B0F0" stroke="#66B0F0" stroke-width="0.406086" stroke-miterlimit="10" stroke-linejoin="round"/>
<path d="M158.671 63.8009H156.502C155.798 63.8009 155.212 63.2293 155.212 62.511V60.3417C155.212 59.6381 155.784 59.0518 156.502 59.0518H158.671C159.375 59.0518 159.961 59.6234 159.961 60.3417V62.511C159.946 63.2293 159.375 63.8009 158.671 63.8009Z" stroke="white" stroke-width="0.406086" stroke-miterlimit="10" stroke-linecap="round"/>
<path d="M168.536 63.8009H166.367C165.663 63.8009 165.077 63.2293 165.077 62.511V60.3417C165.077 59.6381 165.649 59.0518 166.367 59.0518H168.536C169.24 59.0518 169.826 59.6234 169.826 60.3417V62.511C169.826 63.2293 169.24 63.8009 168.536 63.8009Z" stroke="white" stroke-width="0.406086" stroke-miterlimit="10" stroke-linecap="round"/>
<path d="M178.401 63.8009H176.231C175.528 63.8009 174.941 63.2293 174.941 62.511V60.3417C174.941 59.6381 175.513 59.0518 176.231 59.0518H178.401C179.104 59.0518 179.691 59.6234 179.691 60.3417V62.511C179.691 63.2293 179.119 63.8009 178.401 63.8009Z" stroke="white" stroke-width="0.406086" stroke-miterlimit="10" stroke-linecap="round"/>
<path d="M250.722 197.086H197.016L207.555 164.091H240.169L250.722 197.086Z" fill="white" stroke="#3FB1B5" stroke-width="0.406086" stroke-miterlimit="10" stroke-linecap="round"/>
<path d="M201.237 183.879L207.555 164.091H240.169L201.237 183.879Z" fill="#3FB1B5"/>
<path d="M282.81 85.5099H256.704C254.256 85.5099 252.277 83.531 252.277 81.0832V64.2265C252.277 61.7786 254.256 59.7998 256.704 59.7998H282.81C285.258 59.7998 287.237 61.7786 287.237 64.2265V81.0832C287.237 83.531 285.258 85.5099 282.81 85.5099Z" stroke="white" stroke-width="0.406086" stroke-miterlimit="10" stroke-linecap="round"/>
<path d="M259.738 65.8096H279.658" stroke="white" stroke-width="0.406086" stroke-miterlimit="10" stroke-linecap="round"/>
<path d="M259.738 70.3535H279.658" stroke="white" stroke-width="0.406086" stroke-miterlimit="10" stroke-linecap="round"/>
<path d="M259.738 74.8975H279.658" stroke="white" stroke-width="0.406086" stroke-miterlimit="10" stroke-linecap="round"/>
<path d="M259.738 79.4414H279.658" stroke="white" stroke-width="0.406086" stroke-miterlimit="10" stroke-linecap="round"/>
<path d="M290.021 155.091H186.257L180.174 163.813C173.3 173.663 158.774 173.809 151.709 164.091L114.653 113.125C116.207 115.06 123.316 112.905 130.088 108.449C136.963 103.92 141.404 98.2182 140.012 96.1074L165.707 128.853L173.578 114.958C175.733 111.278 179.31 108.64 183.472 107.673L210.253 102H233.339L258.785 107.614C263.212 108.625 266.964 111.513 269.09 115.515L290.021 155.091Z" fill="white" stroke="#3FB1B5" stroke-width="0.406086" stroke-miterlimit="10"/>
<path d="M261.541 154.49L254.168 139.935" stroke="#3FB1B5" stroke-width="0.406086" stroke-miterlimit="10" stroke-linecap="round"/>
<path d="M185.671 155.853L192.971 141.444" stroke="#3FB1B5" stroke-width="0.406086" stroke-miterlimit="10" stroke-linecap="round"/>
<path d="M155.71 116.145L172.435 137.53" stroke="#3FB1B5" stroke-width="0.406086" stroke-miterlimit="10" stroke-linecap="round"/>
<path d="M224.676 109.036L230.832 116.526L244.611 104.829" stroke="#3FB1B5" stroke-width="0.406086" stroke-miterlimit="10" stroke-linecap="round"/>
<path d="M219.971 109.183L213.99 116.819L198.849 104.829" stroke="#3FB1B5" stroke-width="0.406086" stroke-miterlimit="10" stroke-linecap="round"/>
<path d="M145.112 102.659C146.505 104.785 142.049 110.56 135.13 115.148C128.329 119.662 121.117 121.832 119.549 119.882" stroke="#3FB1B5" stroke-width="0.406086" stroke-miterlimit="10" stroke-linecap="round"/>
<path d="M140.511 106.368C141.426 106.368 142.167 105.627 142.167 104.712C142.167 103.797 141.426 103.056 140.511 103.056C139.596 103.056 138.854 103.797 138.854 104.712C138.854 105.627 139.596 106.368 140.511 106.368Z" stroke="#3FB1B5" stroke-width="0.406086" stroke-miterlimit="10" stroke-linecap="round"/>
<path d="M222.301 116.776C223.216 116.776 223.957 116.034 223.957 115.119C223.957 114.204 223.216 113.463 222.301 113.463C221.386 113.463 220.645 114.204 220.645 115.119C220.645 116.034 221.386 116.776 222.301 116.776Z" stroke="#3FB1B5" stroke-width="0.406086" stroke-miterlimit="10" stroke-linecap="round"/>
<path d="M222.301 130.113C223.216 130.113 223.957 129.372 223.957 128.457C223.957 127.542 223.216 126.801 222.301 126.801C221.386 126.801 220.645 127.542 220.645 128.457C220.645 129.372 221.386 130.113 222.301 130.113Z" stroke="#3FB1B5" stroke-width="0.406086" stroke-miterlimit="10" stroke-linecap="round"/>
<path d="M179.646 164.516L186.257 155.091V164.516H179.646Z" fill="#3FB1B5"/>
<path d="M129.928 108.009C123.156 112.465 116.047 114.62 114.493 112.685C114.463 112.656 114.449 112.627 114.419 112.583C114.097 112.099 114.126 111.439 114.419 110.633C115.431 107.98 119.608 103.876 124.915 100.387C129.136 97.6022 133.299 95.6673 136.187 95.0664C137.858 94.7292 139.103 94.8318 139.704 95.4768L139.851 95.6527C141.229 97.7634 136.802 103.48 129.928 108.009Z" fill="#FE5244"/>
<path d="M129.927 108.009C126.072 110.545 122.1 112.348 119.11 113.052L105.727 94.1722C103.866 91.5338 104.481 87.8839 107.134 86.0224L119.183 77.5501L112.352 65.9263C111.356 64.2407 111.927 62.0566 113.628 61.0745C114.185 60.7521 114.786 60.6055 115.387 60.6055C116.545 60.6055 117.688 61.1771 118.362 62.2325L139.719 95.4475L139.865 95.682C141.229 97.7634 136.802 103.48 129.927 108.009Z" fill="#E57281"/>
<path d="M119.155 77.6816L126.616 89.2468C127.305 90.3315 126.997 91.7679 125.912 92.4715L124.256 93.5562C123.171 94.2745 121.705 93.9666 121.002 92.882L113.951 82.3282" stroke="#9A3B82" stroke-width="0.406086" stroke-miterlimit="10" stroke-linecap="round"/>
<path d="M120.971 92.8525C121.69 93.9519 121.367 95.4323 120.268 96.1359L118.758 97.0887C117.673 97.7776 116.237 97.4698 115.533 96.3998" stroke="#9A3B82" stroke-width="0.406086" stroke-miterlimit="10" stroke-linecap="round"/>
<path d="M108.6 86.0518L115.504 96.3123C116.222 97.4117 115.915 98.8921 114.786 99.5957L113.379 100.373C112.323 101.047 110.931 100.768 110.198 99.7423L106.196 94.099" stroke="#9A3B82" stroke-width="0.406086" stroke-miterlimit="10" stroke-linecap="round"/>
<path d="M134.736 87.708L131.233 82.2699C130.075 80.467 127.656 79.9686 125.883 81.1705L117.19 87.063C117.19 87.063 119.712 91.5924 125.839 88.0011L127.891 91.2699C123.699 93.923 122.497 99.5077 125.223 103.656L134.736 87.708Z" fill="#E57281"/>
<path d="M134.282 87.8545L130.778 82.4164C129.62 80.6134 127.202 80.1151 125.428 81.317L117.19 87.0629C117.19 87.0629 119.712 91.5923 125.839 88.0011L127.891 91.2698C123.699 93.9229 122.497 99.5076 125.223 103.656" stroke="#9A3B82" stroke-width="0.406086" stroke-miterlimit="10" stroke-linecap="round"/>
<path d="M129.928 108.009C126.073 110.545 122.101 112.348 119.111 113.052L115.783 108.361C117.645 105.928 120.972 102.996 124.915 100.402C129.137 97.6168 133.299 95.682 136.187 95.081C137.858 94.7439 139.104 94.8465 139.705 95.4914L139.852 95.6673C139.866 95.6966 139.881 95.7113 139.896 95.7406C139.91 95.7553 139.91 95.7699 139.925 95.7992C139.94 95.8286 139.954 95.8432 139.969 95.8725C140.966 98.1152 136.583 103.612 129.928 108.009Z" fill="#9A3B82"/>
<path d="M233.326 89.0996V101.984C233.326 105.722 228.137 108.741 221.76 108.741C215.37 108.741 210.195 105.722 210.195 101.984V89.0996H233.326Z" fill="#E57281"/>
<path d="M213.581 106.762C211.485 105.546 210.181 103.846 210.181 101.984V89.0996H233.326V92.6762C233.326 96.3846 231.068 99.712 227.638 101.104L213.581 106.762Z" fill="#9A3B82"/>
<path d="M239.774 88.3381V88.558C239.774 90.786 237.971 92.5889 235.743 92.5889H233.09C232.196 96.1948 228.942 98.8772 225.043 98.8772H218.476C214.592 98.8772 211.323 96.2095 210.444 92.5889H207.791C205.563 92.5889 203.76 90.786 203.76 88.558V88.3381C203.76 86.1101 205.563 84.3072 207.791 84.3072H210.195V81.1264C210.195 77.7258 212.701 74.9114 215.97 74.4424C216.688 75.6443 218.857 78.5173 223.284 78.3561C225.366 78.2828 227.3 77.887 228.898 77.4179C230.818 76.8609 232.739 78.0336 233.222 79.8658C233.296 80.2763 233.34 80.6867 233.34 81.1118V84.2925H235.743C237.957 84.2925 239.774 86.1101 239.774 88.3381Z" fill="#E57281"/>
<path d="M235.172 84.2923H233.325V80.7598C233.325 80.452 233.281 80.1441 233.208 79.8656C232.724 78.0334 230.804 76.8608 228.884 77.4178C227.286 77.8868 225.366 78.2826 223.27 78.3559C218.843 78.5171 216.674 75.6442 215.955 74.4422C212.687 74.9113 210.18 77.7256 210.18 81.1262V84.307H207.879C207.879 84.307 205.241 74.7647 207.219 72.0676C209.169 69.4145 211.514 70.5725 211.514 70.5725C211.514 70.5725 210.107 62.6279 217.964 62.7745C225.806 62.921 236.008 72.0236 236.755 73.6946C237.928 76.2598 235.172 84.2923 235.172 84.2923Z" fill="#9A3B82"/>
<path d="M234.219 89.0858C234.219 87.5174 235.494 86.2568 237.048 86.2568" stroke="#9A3B82" stroke-width="0.338405" stroke-miterlimit="10" stroke-linecap="round"/>
<path d="M209.329 89.0858C209.329 87.5174 208.054 86.2568 206.5 86.2568" stroke="#9A3B82" stroke-width="0.338405" stroke-miterlimit="10" stroke-linecap="round"/>
<path d="M229.63 81.1262C229.63 81.1262 227.549 79.6018 224.896 80.7011" stroke="#9A3B82" stroke-width="0.338405" stroke-miterlimit="10" stroke-linecap="round"/>
<path d="M213.741 81.1262C213.741 81.1262 215.823 79.6018 218.476 80.7011" stroke="#9A3B82" stroke-width="0.338405" stroke-miterlimit="10" stroke-linecap="round"/>
<path d="M225.409 91.9434C225.409 91.9434 224.281 94.3766 220.821 93.1013" stroke="#9A3B82" stroke-width="0.338405" stroke-miterlimit="10" stroke-linecap="round"/>
<path d="M220.659 90.6836C221.553 90.7422 222.917 90.6836 222.917 90.6836" stroke="#9A3B82" stroke-width="0.338405" stroke-miterlimit="10" stroke-linecap="round"/>
<path d="M227.271 87.2389C227.676 87.2389 228.004 86.6877 228.004 86.0076C228.004 85.3276 227.676 84.7764 227.271 84.7764C226.866 84.7764 226.538 85.3276 226.538 86.0076C226.538 86.6877 226.866 87.2389 227.271 87.2389Z" fill="#9A3B82"/>
<path d="M216.761 87.2389C217.166 87.2389 217.494 86.6877 217.494 86.0076C217.494 85.3276 217.166 84.7764 216.761 84.7764C216.356 84.7764 216.028 85.3276 216.028 86.0076C216.028 86.6877 216.356 87.2389 216.761 87.2389Z" fill="#9A3B82"/>
<path d="M218.505 90.1555H213.888C212.994 90.1555 212.275 89.4372 212.275 88.5431V83.9259C212.275 83.0317 212.994 82.3135 213.888 82.3135H218.505C219.399 82.3135 220.117 83.0317 220.117 83.9259V88.5431C220.132 89.4226 219.399 90.1555 218.505 90.1555Z" stroke="white" stroke-width="0.338405" stroke-miterlimit="10"/>
<path d="M229.807 90.1555H225.19C224.295 90.1555 223.577 89.4372 223.577 88.5431V83.9259C223.577 83.0317 224.295 82.3135 225.19 82.3135H229.807C230.701 82.3135 231.419 83.0317 231.419 83.9259V88.5431C231.419 89.4226 230.701 90.1555 229.807 90.1555Z" stroke="white" stroke-width="0.338405" stroke-miterlimit="10"/>
<path d="M220.133 85.3623H223.577" stroke="white" stroke-width="0.338405" stroke-miterlimit="10"/>
<path d="M231.024 149.403H215.003C213.552 149.403 212.364 148.231 212.364 146.765V138.249C212.364 136.798 213.537 135.61 215.003 135.61H231.024C232.475 135.61 233.662 136.783 233.662 138.249V146.765C233.662 148.216 232.49 149.403 231.024 149.403Z" stroke="#66B0F0" stroke-width="0.406086" stroke-miterlimit="10" stroke-linejoin="round"/>
<path d="M223.417 145.973H217.993C217.128 145.973 216.425 145.27 216.425 144.405V140.608C216.425 139.744 217.128 139.04 217.993 139.04H223.417C224.281 139.04 224.985 139.744 224.985 140.608V144.405C224.985 145.27 224.281 145.973 223.417 145.973Z" fill="#66B0F0"/>
<path d="M228.693 145.871L227.022 144.757C226.568 144.449 226.289 143.921 226.289 143.35V141.679C226.289 141.107 226.568 140.579 227.022 140.272L228.693 139.158C229.089 138.894 229.602 139.187 229.602 139.685V145.358C229.616 145.842 229.089 146.135 228.693 145.871Z" fill="#66B0F0"/>
<path d="M445.294 197.379H56.1689" stroke="#3FB1B5" stroke-width="0.406086" stroke-miterlimit="10" stroke-linecap="round"/>
<path d="M181.45 199.944V380.912H171.234V346.465C171.234 343.255 168.624 340.646 165.414 340.646H92.2858C89.0757 340.646 86.4666 343.255 86.4666 346.465V380.912H76.25V199.944H181.45Z" fill="white" stroke="#3FB1B5" stroke-width="0.406086" stroke-miterlimit="10" stroke-linecap="round"/>
<path d="M181.758 199.944V247.964L76.25 334.842L76.2647 199.944H181.758Z" fill="#D0F0E4"/>
<path d="M171.234 213.723V246.542C171.234 249.591 168.771 252.054 165.722 252.054H91.9928C88.944 252.054 86.4814 249.591 86.4814 246.542V213.723C86.4814 210.674 88.944 208.212 91.9928 208.212H165.722C168.771 208.212 171.234 210.674 171.234 213.723Z" stroke="#3FB1B5" stroke-width="0.406086" stroke-miterlimit="10" stroke-linecap="round"/>
<path d="M147.605 276.913H111.312L109.802 266.521H146.11L147.605 276.913Z" fill="#FFCF2D"/>
<path d="M166.968 260.525C162.438 260.525 158.774 264.19 158.774 268.719V276.913H127.89V268.719C127.89 264.19 131.554 260.525 136.083 260.525H166.968Z" fill="white" stroke="#3FB1B5" stroke-width="0.406086" stroke-miterlimit="10" stroke-linecap="round"/>
<path d="M174.663 266.52H143.779C142.826 263.061 139.645 260.525 135.878 260.525H166.762C170.529 260.525 173.695 263.061 174.663 266.52Z" fill="white" stroke="#3FB1B5" stroke-width="0.406086" stroke-miterlimit="10" stroke-linecap="round"/>
<path d="M171.234 282.424V315.244C171.234 318.293 168.771 320.755 165.722 320.755H91.9928C88.944 320.755 86.4814 318.293 86.4814 315.244V282.424C86.4814 279.376 88.944 276.913 91.9928 276.913H165.722C168.771 276.913 171.234 279.376 171.234 282.424Z" stroke="#3FB1B5" stroke-width="0.406086" stroke-miterlimit="10" stroke-linecap="round"/>
<path d="M113.76 229.481C113.76 226.871 115.871 224.746 118.494 224.746H139.235C141.844 224.746 143.97 226.857 143.97 229.481" stroke="#3FB1B5" stroke-width="0.406086" stroke-miterlimit="10" stroke-linecap="round"/>
<path d="M113.76 298.182C113.76 295.573 115.871 293.447 118.494 293.447H139.235C141.844 293.447 143.97 295.558 143.97 298.182" stroke="#3FB1B5" stroke-width="0.406086" stroke-miterlimit="10" stroke-linecap="round"/>
<path d="M429.8 199.944H418.909V381.307H429.8V199.944Z" fill="white" stroke="#3FB1B5" stroke-width="0.406086" stroke-miterlimit="10" stroke-linecap="round"/>
<path d="M244.714 381.307H472" stroke="#3FB1B5" stroke-width="0.406086" stroke-miterlimit="10" stroke-linecap="round"/>
<path d="M107.179 172.505H100.597C100.597 172.505 91.2014 133.353 82.949 132.078C74.6966 130.803 74.2715 145.871 74.2715 145.871C74.2715 145.871 74.4181 122.961 95.0418 126.098C115.68 129.235 107.179 172.505 107.179 172.505Z" fill="white" stroke="#3FB1B5" stroke-width="0.406086" stroke-miterlimit="10" stroke-linecap="round"/>
<path d="M84.6348 127.094C84.6348 127.094 103.441 120.146 104.291 171.918" stroke="#3FB1B5" stroke-width="0.406086" stroke-miterlimit="10" stroke-linecap="round"/>
<path d="M125.105 171.919H94.1914V197.087H125.105V171.919Z" fill="#FE5244"/>
<path d="M131.614 184.51C129.649 185.36 127.304 185.257 125.12 184.304C123.508 183.601 121.983 182.443 120.752 180.86C119.052 178.661 117.908 175.656 117.908 171.918C117.908 162.86 110.697 157.173 107.736 169.163C107.531 169.998 107.34 170.907 107.179 171.918V171.889V171.831C107.179 171.801 107.179 171.757 107.193 171.713V171.655C107.252 170.907 107.472 168.694 108.146 166.026C108.645 164.047 109.392 161.848 110.506 159.811C111.063 158.8 111.708 157.832 112.47 156.967C114.434 154.71 117.131 153.127 120.811 153.127C127.583 153.127 132.537 161.101 134.428 169.045C136.084 175.949 135.41 182.853 131.614 184.51Z" fill="white" stroke="#3FB1B5" stroke-width="0.406086" stroke-miterlimit="10" stroke-linecap="round"/>
<path d="M112.484 156.967C112.484 156.967 126.058 147.308 130.045 184.788" stroke="#3FB1B5" stroke-width="0.406086" stroke-miterlimit="10" stroke-linecap="round"/>
<path d="M73.8311 145.872C73.8311 148.29 73.5526 157.539 82.3767 157.964C91.2008 158.39 92.0802 145.065 92.0802 145.065C92.0802 145.065 87.7415 133.28 82.9483 132.079C74.8425 130.041 73.8311 145.872 73.8311 145.872Z" fill="#3FB1B5"/>
<path d="M117.908 171.919H107.179C109.656 156.396 117.908 162.23 117.908 171.919Z" fill="#3FB1B5"/>
<path opacity="0.4" d="M300.121 57.9085V154.666C300.121 159.869 295.9 164.076 290.711 164.076H179.97C173.022 173.648 158.701 173.692 151.695 164.076L151.68 164.061C148.895 163.871 146.433 162.449 144.85 160.353L147.4 158.154L212.481 101.985L274.455 48.498H290.711C295.9 48.498 300.121 52.7195 300.121 57.9085Z" fill="white"/>
<path opacity="0.4" d="M131.613 184.949C129.663 185.828 127.303 185.696 125.119 184.744V197.086H102.297L120.766 181.152L125.134 177.385L128.461 174.512L134.896 169.045C136.772 177.048 135.732 183.058 131.613 184.949Z" fill="white"/>
<path d="M11.4918 62.2762C11.3159 62.2762 11.14 62.1589 11.0814 61.9831C11.0081 61.7485 11.1254 61.4993 11.3452 61.4261L12.7231 60.9423C12.9576 60.8691 13.2068 60.9863 13.2801 61.2062C13.3534 61.4407 13.2361 61.6899 13.0162 61.7632L11.6384 62.2469C11.5798 62.2616 11.5358 62.2762 11.4918 62.2762ZM14.9511 61.0743C14.7752 61.0743 14.5993 60.957 14.5407 60.7811C14.4674 60.5466 14.5846 60.2974 14.8045 60.2241L16.1824 59.7404C16.4169 59.6671 16.6661 59.7844 16.7394 60.0042C16.8126 60.2388 16.6954 60.4879 16.4755 60.5612L15.0977 61.0449C15.0537 61.0596 14.9951 61.0743 14.9511 61.0743ZM18.4104 59.8576C18.2345 59.8576 18.0586 59.7404 17.9999 59.5645C17.9267 59.33 18.0439 59.0808 18.2638 59.0075L19.6416 58.5238C19.8762 58.4505 20.1254 58.5677 20.1986 58.7876C20.2719 59.0221 20.1547 59.2713 19.9348 59.3446L18.5569 59.8283C18.513 59.8576 18.4543 59.8576 18.4104 59.8576ZM21.8696 58.6557C21.6937 58.6557 21.5179 58.5384 21.4592 58.3625C21.3859 58.128 21.5032 57.8788 21.7231 57.8055L23.1009 57.3218C23.3354 57.2485 23.5846 57.3658 23.6579 57.5857C23.7312 57.8202 23.6139 58.0694 23.3941 58.1427L22.0162 58.6264C21.9722 58.6557 21.9283 58.6557 21.8696 58.6557ZM25.3289 57.4537C25.153 57.4537 24.9771 57.3365 24.9185 57.1606C24.8452 56.9261 24.9625 56.6769 25.1824 56.6036L26.5602 56.1199C26.7947 56.0466 27.0439 56.1638 27.1172 56.3837C27.1905 56.6182 27.0732 56.8674 26.8533 56.9407L25.4755 57.4244C25.4315 57.4537 25.3876 57.4537 25.3289 57.4537ZM28.8029 56.2518C28.627 56.2518 28.4511 56.1345 28.3924 55.9586C28.3191 55.7241 28.4364 55.4749 28.6563 55.4016L30.0341 54.9179C30.2687 54.8446 30.5178 54.9619 30.5911 55.1818C30.6644 55.4163 30.5472 55.6655 30.3273 55.7388L28.9494 56.2225C28.8908 56.2518 28.8468 56.2518 28.8029 56.2518ZM32.2621 55.0498C32.0862 55.0498 31.9104 54.9326 31.8517 54.7567C31.7784 54.5222 31.8957 54.273 32.1156 54.1997L33.4934 53.716C33.7279 53.6427 33.9771 53.7599 34.0504 53.9798C34.1237 54.2143 34.0064 54.4635 33.7866 54.5368L32.4087 55.0205C32.3501 55.0352 32.3061 55.0498 32.2621 55.0498ZM35.7214 53.8479C35.5455 53.8479 35.3696 53.7306 35.311 53.5547C35.2377 53.3202 35.355 53.071 35.5748 52.9977L36.9527 52.514C37.1872 52.4407 37.4364 52.558 37.5097 52.7779C37.583 53.0124 37.4657 53.2616 37.2458 53.3349L35.868 53.8186C35.8094 53.8332 35.7654 53.8479 35.7214 53.8479ZM39.1807 52.6459C39.0048 52.6459 38.8289 52.5287 38.7703 52.3528C38.697 52.1182 38.8143 51.8691 39.0341 51.7958L40.412 51.3121C40.6465 51.2388 40.8957 51.356 40.969 51.5759C41.0423 51.8104 40.925 52.0596 40.7051 52.1329L39.3273 52.6166C39.2833 52.6313 39.2247 52.6459 39.1807 52.6459ZM42.64 51.444C42.4641 51.444 42.2882 51.3267 42.2295 51.1508C42.1563 50.9163 42.2735 50.6671 42.4934 50.5938L43.8713 50.1101C44.1058 50.0368 44.355 50.1541 44.4282 50.3739C44.5015 50.6085 44.3843 50.8577 44.1644 50.9309L42.7866 51.4147C42.7426 51.4293 42.684 51.444 42.64 51.444ZM46.0993 50.242C45.9234 50.242 45.7475 50.1248 45.6888 49.9489C45.6155 49.7143 45.7328 49.4651 45.9527 49.3919L47.3305 48.9081C47.5651 48.8349 47.8142 48.9521 47.8875 49.172C47.9608 49.4065 47.8436 49.6557 47.6237 49.729L46.2458 50.2127C46.2019 50.2274 46.1432 50.242 46.0993 50.242ZM49.5585 49.0254C49.3826 49.0254 49.2067 48.9081 49.1481 48.7323C49.0748 48.4977 49.1921 48.2485 49.4119 48.1753L50.7898 47.6915C51.0243 47.6182 51.2735 47.7355 51.3468 47.9554C51.4201 48.1899 51.3028 48.4391 51.083 48.5124L49.7051 48.9961C49.6611 49.0254 49.6172 49.0254 49.5585 49.0254ZM53.0178 47.8235C52.8419 47.8235 52.666 47.7062 52.6074 47.5303C52.5341 47.2958 52.6514 47.0466 52.8712 46.9733L54.2491 46.4896C54.4836 46.4163 54.7328 46.5336 54.8061 46.7534C54.8794 46.988 54.7621 47.2371 54.5422 47.3104L53.1644 47.7941C53.1204 47.8235 53.0764 47.8235 53.0178 47.8235ZM56.4918 46.6215C56.3159 46.6215 56.14 46.5042 56.0813 46.3284C56.008 46.0938 56.1253 45.8446 56.3452 45.7713L57.723 45.2876C57.9576 45.2143 58.2067 45.3316 58.28 45.5515C58.3533 45.786 58.2361 46.0352 58.0162 46.1085L56.6383 46.5922C56.5797 46.6215 56.5357 46.6215 56.4918 46.6215ZM59.951 45.4196C59.7751 45.4196 59.5992 45.3023 59.5406 45.1264C59.4673 44.8919 59.5846 44.6427 59.8044 44.5694L61.1823 44.0857C61.4168 44.0124 61.666 44.1297 61.7393 44.3495C61.8126 44.5841 61.6953 44.8332 61.4755 44.9065L60.0976 45.3902C60.039 45.4196 59.995 45.4196 59.951 45.4196ZM63.4103 44.2176C63.2344 44.2176 63.0585 44.1003 62.9999 43.9244C62.9266 43.6899 63.0439 43.4407 63.2637 43.3674L64.6416 42.8837C64.8761 42.8104 65.1253 42.9277 65.1986 43.1476C65.2719 43.3821 65.1546 43.6313 64.9347 43.7046L63.5569 44.1883C63.4982 44.2176 63.4543 44.2176 63.4103 44.2176ZM66.8696 43.0156C66.6937 43.0156 66.5178 42.8984 66.4592 42.7225C66.3859 42.488 66.5031 42.2388 66.723 42.1655L68.1008 41.6818C68.3354 41.6085 68.5846 41.7257 68.6579 41.9456C68.7311 42.1801 68.6139 42.4293 68.394 42.5026L67.0162 42.9863C66.9722 43.001 66.9136 43.0156 66.8696 43.0156ZM70.3289 41.8137C70.153 41.8137 69.9771 41.6964 69.9184 41.5205C69.8451 41.286 69.9624 41.0368 70.1823 40.9635L71.5601 40.4798C71.7947 40.4065 72.0438 40.5238 72.1171 40.7437C72.1904 40.9782 72.0732 41.2274 71.8533 41.3007L70.4754 41.7844C70.4315 41.799 70.3728 41.8137 70.3289 41.8137Z" fill="#FFCF2D"/>
<path d="M27.0882 62.2767C26.8391 62.2767 26.6485 62.0862 26.6485 61.837C26.6485 57.8647 25.4172 54.9771 22.9693 53.2767C21.1371 52.0015 19.2755 51.8842 19.2609 51.8842C19.0117 51.8696 18.8358 51.6644 18.8505 51.4152C18.8651 51.166 19.0703 50.9901 19.3049 51.0048C19.3928 51.0048 21.401 51.122 23.4384 52.5292C26.8244 54.8745 27.528 58.8907 27.528 61.837C27.528 62.0715 27.3374 62.2767 27.0882 62.2767Z" fill="#3FB1B5"/>
<path d="M97.1232 62.2767H11.4914C11.3301 62.2767 11.1689 62.1887 11.0956 62.0275C11.0223 61.8809 11.037 61.705 11.1396 61.5731L45.9376 15.1806C46.0109 15.078 46.1281 15.0194 46.2454 15.0047C46.3627 14.9901 46.4946 15.034 46.5825 15.122L97.431 61.5144C97.5629 61.6317 97.6069 61.8223 97.5483 61.9981C97.475 62.1594 97.3137 62.2767 97.1232 62.2767ZM12.3709 61.3972H95.9945L46.348 16.0894L12.3709 61.3972Z" fill="#3FB1B5"/>
<path d="M3.79642 65.3252C1.70033 65.3252 0 63.6249 0 61.5288C0 59.4327 1.70033 57.7324 3.79642 57.7324C5.8925 57.7324 7.59282 59.4327 7.59282 61.5288C7.59282 63.6249 5.8925 65.3252 3.79642 65.3252ZM3.79642 58.5972C2.18404 58.5972 0.879478 59.9018 0.879478 61.5142C0.879478 63.1265 2.18404 64.4311 3.79642 64.4311C5.40879 64.4311 6.71334 63.1265 6.71334 61.5142C6.71334 59.9018 5.40879 58.5972 3.79642 58.5972Z" fill="#FFCF2D"/>
<path d="M7.59334 61.5293H6.71387V64.886H7.59334V61.5293Z" fill="#FFCF2D"/>
<path d="M48.8824 12.293C46.7863 12.293 45.0859 10.5927 45.0859 8.49661C45.0859 6.40052 46.7863 4.7002 48.8824 4.7002C50.9784 4.7002 52.6788 6.40052 52.6788 8.49661C52.6788 10.578 50.9784 12.293 48.8824 12.293ZM48.8824 5.56501C47.27 5.56501 45.9654 6.86957 45.9654 8.48195C45.9654 10.0943 47.27 11.4135 48.8824 11.4135C50.4947 11.4135 51.7993 10.109 51.7993 8.49661C51.7993 6.88423 50.4947 5.56501 48.8824 5.56501Z" fill="#FFCF2D"/>
<path d="M45.9371 2.61816H45.0576V11.838H45.9371V2.61816Z" fill="#FFCF2D"/>
<path d="M103.968 65.2374C101.872 65.2374 100.172 63.537 100.172 61.4409C100.172 59.3448 101.872 57.6445 103.968 57.6445V58.524C102.356 58.524 101.051 59.8286 101.051 61.4409C101.051 63.0533 102.356 64.3579 103.968 64.3579V65.2374Z" fill="#FFCF2D"/>
<path d="M325.963 250.075V331.661H307.113L295.108 298.139L277.914 250.075H325.963Z" fill="#A0505A"/>
<path d="M277.914 250.075H325.963V276.269L283.631 266.038L277.914 250.075Z" fill="#73325A"/>
<path d="M325.963 298.139V331.661H307.113L295.108 298.139C295.108 298.139 304.827 303.503 325.963 298.139Z" stroke="white" stroke-width="0.406086" stroke-miterlimit="10" stroke-linecap="round"/>
<path d="M304.914 306.01C306.096 306.01 307.055 305.051 307.055 303.87C307.055 302.688 306.096 301.729 304.914 301.729C303.733 301.729 302.774 302.688 302.774 303.87C302.774 305.051 303.733 306.01 304.914 306.01Z" stroke="white" stroke-width="0.406086" stroke-miterlimit="10" stroke-linecap="round"/>
<path d="M315.117 312.914C316.299 312.914 317.257 311.956 317.257 310.774C317.257 309.592 316.299 308.634 315.117 308.634C313.935 308.634 312.977 309.592 312.977 310.774C312.977 311.956 313.935 312.914 315.117 312.914Z" stroke="white" stroke-width="0.406086" stroke-miterlimit="10" stroke-linecap="round"/>
<path d="M322.709 305.248C323.891 305.248 324.849 304.29 324.849 303.108C324.849 301.926 323.891 300.968 322.709 300.968C321.527 300.968 320.569 301.926 320.569 303.108C320.569 304.29 321.527 305.248 322.709 305.248Z" stroke="white" stroke-width="0.406086" stroke-miterlimit="10" stroke-linecap="round"/>
<path d="M319.705 320.946C320.886 320.946 321.845 319.988 321.845 318.806C321.845 317.624 320.886 316.666 319.705 316.666C318.523 316.666 317.564 317.624 317.564 318.806C317.564 319.988 318.523 320.946 319.705 320.946Z" stroke="white" stroke-width="0.406086" stroke-miterlimit="10" stroke-linecap="round"/>
<path d="M307.055 317.048C308.237 317.048 309.195 316.09 309.195 314.908C309.195 313.726 308.237 312.768 307.055 312.768C305.873 312.768 304.915 313.726 304.915 314.908C304.915 316.09 305.873 317.048 307.055 317.048Z" stroke="white" stroke-width="0.406086" stroke-miterlimit="10" stroke-linecap="round"/>
<path d="M310.543 328.774C311.725 328.774 312.683 327.816 312.683 326.634C312.683 325.452 311.725 324.494 310.543 324.494C309.361 324.494 308.403 325.452 308.403 326.634C308.403 327.816 309.361 328.774 310.543 328.774Z" stroke="white" stroke-width="0.406086" stroke-miterlimit="10" stroke-linecap="round"/>
<path d="M334.876 346.876L321.947 373.715C320.115 378.039 315.879 380.853 311.174 380.853H294.683C290.462 380.853 287.897 376.573 289.509 372.674L306.087 332.687C307.011 330.254 308.638 328.231 310.675 326.809C312.727 325.387 315.19 324.581 317.784 324.581C321.39 324.581 324.967 327.029 327.341 329.741L333.087 335.941C335.74 338.961 336.429 343.197 334.876 346.876Z" fill="#66B0F0"/>
<path d="M334.876 346.876L321.947 373.714C320.115 378.038 315.879 380.853 311.174 380.853H293.643C292.016 380.853 291.092 379.841 290.55 378.449H294.449C299.154 378.449 303.39 375.635 305.222 371.31L320.13 340.221C321.522 337.319 324.468 335.457 327.693 335.457C331.9 335.457 335.095 338.535 335.682 342.434C335.74 343.929 335.476 345.439 334.876 346.876Z" fill="white" stroke="#66B0F0" stroke-width="0.406086" stroke-miterlimit="10" stroke-linejoin="round"/>
<path d="M331.9 334.651C330.346 333.801 328.47 333.185 326.828 333.185C323.677 333.185 320.76 335.017 319.397 337.861L303.962 370.05C301.998 374.696 297.454 377.701 292.397 377.701H289.553C289.406 377.423 289.304 377.13 289.201 376.822H292.397C297.102 376.822 301.323 374.022 303.156 369.698L303.17 369.683L318.62 337.48C320.129 334.328 323.354 332.306 326.843 332.306C327.957 332.306 329.291 332.672 330.434 333.068L331.9 334.651Z" fill="white"/>
<path d="M277.915 250.075L274.235 298.138L272.594 319.671C272.594 319.671 261.879 331.602 249.683 324.244L244.04 298.153L231.126 238.451C227.638 222.312 238.661 206.614 255.033 204.43L277.915 250.075Z" fill="#A0505A"/>
<path d="M274.236 298.138L272.595 320.257C272.595 320.257 261.88 332.188 249.684 324.83L244.041 298.152C258.215 302.403 274.236 298.138 274.236 298.138Z" stroke="white" stroke-width="0.406086" stroke-miterlimit="10" stroke-linecap="round"/>
<path d="M257.395 311.432C258.577 311.432 259.535 310.474 259.535 309.292C259.535 308.11 258.577 307.152 257.395 307.152C256.213 307.152 255.255 308.11 255.255 309.292C255.255 310.474 256.213 311.432 257.395 311.432Z" stroke="white" stroke-width="0.406086" stroke-miterlimit="10" stroke-linecap="round"/>
<path d="M270.997 308.149C272.178 308.149 273.137 307.191 273.137 306.009C273.137 304.827 272.178 303.869 270.997 303.869C269.815 303.869 268.856 304.827 268.856 306.009C268.856 307.191 269.815 308.149 270.997 308.149Z" stroke="white" stroke-width="0.406086" stroke-miterlimit="10" stroke-linecap="round"/>
<path d="M249.186 305.247C250.368 305.247 251.326 304.289 251.326 303.107C251.326 301.925 250.368 300.967 249.186 300.967C248.004 300.967 247.046 301.925 247.046 303.107C247.046 304.289 248.004 305.247 249.186 305.247Z" stroke="white" stroke-width="0.406086" stroke-miterlimit="10" stroke-linecap="round"/>
<path d="M255.254 323.086C256.436 323.086 257.394 322.128 257.394 320.946C257.394 319.764 256.436 318.806 255.254 318.806C254.072 318.806 253.114 319.764 253.114 320.946C253.114 322.128 254.072 323.086 255.254 323.086Z" stroke="white" stroke-width="0.406086" stroke-miterlimit="10" stroke-linecap="round"/>
<path d="M265.237 318.806C266.419 318.806 267.377 317.847 267.377 316.665C267.377 315.484 266.419 314.525 265.237 314.525C264.055 314.525 263.097 315.484 263.097 316.665C263.097 317.847 264.055 318.806 265.237 318.806Z" stroke="white" stroke-width="0.406086" stroke-miterlimit="10" stroke-linecap="round"/>
<path d="M286.724 324.801L272.594 381.308H268.138C267.933 381.308 267.742 381.293 267.537 381.278C264.166 380.971 261.322 378.127 260.604 374.77L249.669 324.215C261.864 331.588 272.594 319.656 272.594 319.656L286.724 324.801Z" fill="#66B0F0"/>
<path d="M287.442 353.795C290.417 338.081 291.238 326.076 286.108 325.109C280.977 324.142 271.845 334.563 268.87 350.277C265.894 365.99 267.448 379.886 272.578 380.853C277.709 381.835 284.466 369.523 287.442 353.795Z" fill="white" stroke="#66B0F0" stroke-width="0.406086" stroke-miterlimit="10" stroke-linejoin="round"/>
<path d="M266.819 350.028C265.28 358.177 264.825 366.049 265.558 372.205C266.086 376.632 267.2 379.783 268.724 381.308H268.138C267.933 381.308 267.742 381.293 267.537 381.278C266.159 379.461 265.177 376.412 264.679 372.308C263.931 366.078 264.385 358.104 265.954 349.866C267.434 342.068 270.424 334.754 274.397 329.257C276.771 325.974 279.263 323.673 281.535 322.632L282.854 323.072C277.622 324.625 269.677 334.945 266.819 350.028Z" fill="white"/>
<path d="M255.032 204.415L321.902 197.525L388.742 216.273L388.171 225.156C387.262 239.169 375.184 250.074 361.141 250.074H277.928L255.032 204.415Z" fill="#FE5244"/>
<path d="M384.931 215.628C384.931 228.351 372.237 243.918 358.195 243.918H274.981" stroke="white" stroke-width="0.406086" stroke-miterlimit="10" stroke-linecap="round" stroke-linejoin="round"/>
<path d="M377.001 213.093C374.92 224.453 363.809 236.589 351.643 236.589H271.61" stroke="white" stroke-width="0.406086" stroke-miterlimit="10" stroke-linecap="round" stroke-linejoin="round"/>
<path d="M367.987 210.396C364.469 220.04 354.927 229.114 344.593 229.114H267.36" stroke="white" stroke-width="0.406086" stroke-miterlimit="10" stroke-linecap="round" stroke-linejoin="round"/>
<path d="M361.054 208.504C356.436 215.525 348.858 221.051 340.782 221.051H263.549" stroke="white" stroke-width="0.406086" stroke-miterlimit="10" stroke-linecap="round" stroke-linejoin="round"/>
<path d="M353.314 206.335C348.872 210.806 343.126 213.723 337.117 213.723H259.884" stroke="white" stroke-width="0.406086" stroke-miterlimit="10" stroke-linecap="round" stroke-linejoin="round"/>
<path d="M343.244 203.418C340.107 205.192 336.677 206.247 333.16 206.247H255.927" stroke="white" stroke-width="0.406086" stroke-miterlimit="10" stroke-linecap="round" stroke-linejoin="round"/>
<path d="M277.767 250.075L254.886 204.415" stroke="white" stroke-width="0.406086" stroke-miterlimit="10" stroke-linecap="round" stroke-linejoin="round"/>
<path d="M392.408 155.091C386.105 156.879 379.905 156.351 379.245 154.431C378.629 152.599 381.415 149.462 387.058 147.381C387.336 147.278 387.629 147.175 387.923 147.073C389.623 146.501 391.323 146.135 392.921 145.944C397.656 145.343 401.511 146.193 401.994 147.63C402.654 149.55 399.077 153.2 392.408 155.091Z" fill="white" stroke="#3FB1B5" stroke-width="0.406086" stroke-miterlimit="10" stroke-linejoin="round"/>
<path d="M388.421 197.833H386.002L379.655 154.988V154.959L379.494 153.889C379.802 151.939 382.851 149.184 388.23 147.395C390.913 146.501 393.58 146.105 395.852 146.062L398.168 152.408L398.388 153.009L405.717 173.105C410.115 185.11 401.217 197.833 388.421 197.833Z" fill="#A0505A"/>
<path d="M398.315 152.863C396.776 153.83 394.782 154.724 392.408 155.399C386.955 156.938 381.429 156.307 379.655 154.988V154.959L379.494 153.889C379.802 151.939 382.851 149.184 388.23 147.395C390.913 146.501 393.58 146.105 395.852 146.062L398.315 152.863Z" fill="#73325A"/>
<path d="M309.913 162.581L302.218 181.725C298.422 191.179 289.246 197.379 279.044 197.379H175.603V187.91C175.603 185.624 177.01 183.571 179.15 182.765L189.777 178.734C190.744 178.368 191.756 178.177 192.782 178.177H204.845L273.122 171.288L284.907 144.303L309.913 162.581Z" fill="#A0505A"/>
<path d="M186.742 184.554L178.724 187.588C177.112 188.204 176.042 189.743 176.042 191.472" stroke="#73325A" stroke-width="0.406086" stroke-miterlimit="10" stroke-linecap="round"/>
<path d="M186.742 189.391L178.724 192.425C177.112 193.04 176.042 194.58 176.042 196.309" stroke="#73325A" stroke-width="0.406086" stroke-miterlimit="10" stroke-linecap="round"/>
<path d="M186.743 194.052L178.725 196.939" stroke="#73325A" stroke-width="0.406086" stroke-miterlimit="10" stroke-linecap="round"/>
<path d="M185.907 180.361C185.907 180.361 193.412 161.203 195.816 161.526C198.22 161.848 189.161 179.13 189.161 179.13L185.907 180.361Z" fill="#FE5244"/>
<path d="M284.906 144.317L283.177 148.26L305.325 173.985L309.913 162.581L284.906 144.317Z" fill="#73325A"/>
<path d="M379.655 155.003L388.743 216.273L321.918 197.525L309.913 162.566L278.926 139.92L289.802 126.962C299.506 115.397 313.826 108.713 328.924 108.713H350.398C369.072 108.713 386.266 118.915 395.222 135.302L402.185 147.351C402.185 147.351 400.088 144.273 388.787 147.366C378.834 150.107 379.655 155.003 379.655 155.003Z" fill="#3FB1B5"/>
<path d="M309.913 162.288L313.387 147.22" stroke="white" stroke-width="0.406086" stroke-miterlimit="10" stroke-linecap="round" stroke-linejoin="round"/>
<path d="M387.058 201.967L375.757 131.711" stroke="white" stroke-width="0.406086" stroke-miterlimit="10" stroke-linecap="round" stroke-linejoin="round"/>
<path d="M321.903 197.247L388.597 216.273" stroke="white" stroke-width="0.406086" stroke-miterlimit="10" stroke-linecap="round" stroke-linejoin="round"/>
<path d="M325.509 98.921V108.771L342.893 108.625V91.2402L325.509 98.921Z" fill="#A0505A"/>
<path d="M344.3 88.2059V88.4698C344.3 91.1082 342.306 93.2483 339.668 93.2483H338.642C337.982 95.8574 332.119 98.9063 327.956 98.9063H323.104C317.798 98.9063 313.738 94.1424 314.603 88.8949L314.837 87.473L313.401 86.6669C312.58 86.1978 312.345 85.1278 312.917 84.3656L316.025 80.2613L316.699 76.2157C317.241 72.8884 319.425 70.1766 322.328 68.8428C323.471 81.7271 334.845 83.2515 337.85 83.4274H339.521C342.16 83.4274 344.3 85.5675 344.3 88.2059Z" fill="#A0505A"/>
<path d="M336.604 89.4663C336.604 87.3849 338.29 85.6992 340.372 85.6992" stroke="#73325A" stroke-width="0.406086" stroke-miterlimit="10" stroke-linecap="round"/>
<path d="M320.715 83.5589C321.128 83.5589 321.463 82.7845 321.463 81.8293C321.463 80.874 321.128 80.0996 320.715 80.0996C320.302 80.0996 319.968 80.874 319.968 81.8293C319.968 82.7845 320.302 83.5589 320.715 83.5589Z" fill="#73325A"/>
<path d="M319.571 76.4797C319.571 76.4797 321.638 76.2744 323.763 79.206" stroke="#73325A" stroke-width="0.406086" stroke-miterlimit="10" stroke-linecap="round"/>
<path d="M337.851 83.4278H339.522C342.16 83.4278 344.301 85.5679 344.301 88.2063V88.4701C344.301 91.1086 342.307 93.2486 339.669 93.2486L338.54 94.0401C333.791 97.089 327.224 109.079 328.836 117.566C330.654 127.109 338.965 129.234 346.646 127.768C354.327 126.302 359.926 121.832 358.108 112.275C357.903 111.146 357.566 110.017 357.141 108.903C357.273 108.947 357.39 108.991 357.522 109.035C366.757 111.556 377.603 111.85 380.594 104.638C383.584 97.4261 382.91 90.2877 373.924 86.5646C368.706 84.3952 361.612 84.4099 356.115 85.905C358.885 76.2747 353.96 65.5597 344.916 64.4897C330.713 62.804 322.563 68.6672 322.343 68.8285C322.328 70.5288 323.486 82.5923 337.851 83.4278Z" fill="#73325A"/>
<path d="M356.481 85.5684C355.323 89.3355 352.934 93.3664 349.05 96.1074C349.05 96.1074 355.91 100.637 357.522 109.05" stroke="white" stroke-width="0.406086" stroke-miterlimit="10" stroke-linecap="round" stroke-linejoin="round"/>
<path d="M360.468 85.2452H356.584V81.3608C356.584 79.3233 358.226 77.6816 360.263 77.6816H360.468C362.506 77.6816 364.148 79.3233 364.148 81.3608V81.566C364.162 83.5888 362.506 85.2452 360.468 85.2452Z" stroke="#FE5244" stroke-width="0.406086" stroke-miterlimit="10" stroke-linejoin="round"/>
<path d="M359.047 89.2323L356.555 85.2746L360.512 82.7828C362.491 81.5368 365.115 82.1232 366.361 84.102L366.595 84.4684C367.841 86.4473 367.255 89.071 365.276 90.317L364.91 90.5515C362.902 91.7974 360.292 91.2111 359.047 89.2323Z" stroke="#FE5244" stroke-width="0.406086" stroke-miterlimit="10" stroke-linejoin="round"/>
<path d="M336.092 96.2976L338.863 93.6445L341.575 96.708C342.908 98.2471 342.733 100.578 341.193 101.897L341.032 102.029C339.493 103.363 337.163 103.187 335.843 101.648L335.711 101.487C334.378 99.9621 334.553 97.6315 336.092 96.2976Z" stroke="#FE5244" stroke-width="0.406086" stroke-miterlimit="10" stroke-linejoin="round"/>
<path d="M340.138 98.2031L338.892 93.7031L343.392 92.4572C345.649 91.8269 347.98 93.1461 348.61 95.4035L348.727 95.8285C349.357 98.0859 348.038 100.416 345.781 101.047L345.356 101.164C343.098 101.78 340.768 100.446 340.138 98.2031Z" stroke="#FE5244" stroke-width="0.406086" stroke-miterlimit="10" stroke-linejoin="round"/>
<path d="M300.136 261.346L274.602 380.852" stroke="#FFCF2D" stroke-width="0.406086" stroke-miterlimit="10" stroke-linecap="round"/>
<path d="M365.481 261.346L391.016 380.852" stroke="#FFCF2D" stroke-width="0.406086" stroke-miterlimit="10" stroke-linecap="round"/>
<path d="M280.26 354.321H385.006" stroke="#FFCF2D" stroke-width="0.406086" stroke-miterlimit="10" stroke-linecap="round"/>
<path d="M385.577 261.346H280.025C278.691 261.346 277.606 260.262 277.606 258.928V252.493C277.606 251.159 278.691 250.074 280.025 250.074H385.577C386.911 250.074 387.996 251.159 387.996 252.493V258.928C387.996 260.262 386.911 261.346 385.577 261.346Z" fill="white" stroke="#66B0F0" stroke-width="0.406086" stroke-miterlimit="10" stroke-linejoin="round"/>
</svg>
