<svg width="168" height="168" viewBox="0 0 168 168" fill="none" xmlns="http://www.w3.org/2000/svg">
<g filter="url(#filter0_ddd_9330_47515)">
<path d="M21.8405 45.3594C20.9493 45.3594 20.0947 45.7134 19.4646 46.3435C18.8345 46.9736 18.4805 47.8282 18.4805 48.7194C18.4805 49.6105 18.8345 50.4651 19.4646 51.0953C20.0947 51.7254 20.9493 52.0794 21.8405 52.0794C22.7316 52.0794 23.5862 51.7254 24.2163 51.0953C24.8465 50.4651 25.2005 49.6105 25.2005 48.7194C25.2005 47.8282 24.8465 46.9736 24.2163 46.3435C23.5862 45.7134 22.7316 45.3594 21.8405 45.3594Z" fill="#EE3E54"/>
<path d="M129.36 20.1602C128.914 20.1602 128.487 20.3372 128.172 20.6522C127.857 20.9673 127.68 21.3946 127.68 21.8402C127.68 22.2857 127.857 22.713 128.172 23.0281C128.487 23.3432 128.914 23.5202 129.36 23.5202C129.805 23.5202 130.233 23.3432 130.548 23.0281C130.863 22.713 131.04 22.2857 131.04 21.8402C131.04 21.3946 130.863 20.9673 130.548 20.6522C130.233 20.3372 129.805 20.1602 129.36 20.1602Z" fill="#F1BC19"/>
<path d="M83.9998 21.8398C67.514 21.8398 51.7034 28.3888 40.0461 40.0461C28.3888 51.7034 21.8398 67.514 21.8398 83.9998C21.8398 100.486 28.3888 116.296 40.0461 127.954C51.7034 139.611 67.514 146.16 83.9998 146.16C100.486 146.16 116.296 139.611 127.954 127.954C139.611 116.296 146.16 100.486 146.16 83.9998C146.16 67.514 139.611 51.7034 127.954 40.0461C116.296 28.3888 100.486 21.8398 83.9998 21.8398Z" fill="#FCE0A2"/>
<path d="M139.441 18.4805C137.658 18.4805 135.949 19.1885 134.689 20.4487C133.429 21.709 132.721 23.4182 132.721 25.2005C132.721 26.9827 133.429 28.692 134.689 29.9522C135.949 31.2125 137.658 31.9205 139.441 31.9205C141.223 31.9205 142.932 31.2125 144.192 29.9522C145.453 28.692 146.161 26.9827 146.161 25.2005C146.161 23.4182 145.453 21.709 144.192 20.4487C142.932 19.1885 141.223 18.4805 139.441 18.4805Z" fill="#F1BC19"/>
<path d="M146.161 36.9609C145.27 36.9609 144.415 37.3149 143.785 37.9451C143.155 38.5752 142.801 39.4298 142.801 40.3209C142.801 41.2121 143.155 42.0667 143.785 42.6968C144.415 43.3269 145.27 43.6809 146.161 43.6809C147.052 43.6809 147.907 43.3269 148.537 42.6968C149.167 42.0667 149.521 41.2121 149.521 40.3209C149.521 39.4298 149.167 38.5752 148.537 37.9451C147.907 37.3149 147.052 36.9609 146.161 36.9609Z" fill="#EE3E54"/>
<path d="M136.08 124.319C135.189 124.319 134.335 124.673 133.705 125.303C133.074 125.933 132.72 126.788 132.72 127.679C132.72 128.57 133.074 129.425 133.705 130.055C134.335 130.685 135.189 131.039 136.08 131.039C136.972 131.039 137.826 130.685 138.456 130.055C139.086 129.425 139.44 128.57 139.44 127.679C139.44 126.788 139.086 125.933 138.456 125.303C137.826 124.673 136.972 124.319 136.08 124.319ZM25.2005 99.1191C23.4182 99.1191 21.709 99.8271 20.4487 101.087C19.1885 102.348 18.4805 104.057 18.4805 105.839C18.4805 107.621 19.1885 109.331 20.4487 110.591C21.709 111.851 23.4182 112.559 25.2005 112.559C26.9827 112.559 28.692 111.851 29.9522 110.591C31.2125 109.331 31.9205 107.621 31.9205 105.839C31.9205 104.057 31.2125 102.348 29.9522 101.087C28.692 99.8271 26.9827 99.1191 25.2005 99.1191Z" fill="#FBCD59"/>
<path d="M42.0006 142.801C41.1095 142.801 40.2549 143.155 39.6247 143.785C38.9946 144.415 38.6406 145.27 38.6406 146.161C38.6406 147.052 38.9946 147.907 39.6247 148.537C40.2549 149.167 41.1095 149.521 42.0006 149.521C42.8918 149.521 43.7464 149.167 44.3765 148.537C45.0066 147.907 45.3606 147.052 45.3606 146.161C45.3606 145.27 45.0066 144.415 44.3765 143.785C43.7464 143.155 42.8918 142.801 42.0006 142.801Z" fill="#EE3E54"/>
<path d="M31.0809 85.6797C29.9669 85.6797 28.8987 86.1222 28.111 86.9098C27.3234 87.6975 26.8809 88.7658 26.8809 89.8797C26.8809 90.9936 27.3234 92.0619 28.111 92.8495C28.8987 93.6372 29.9669 94.0797 31.0809 94.0797C32.1948 94.0797 33.2631 93.6372 34.0507 92.8495C34.8384 92.0619 35.2809 90.9936 35.2809 89.8797C35.2809 88.7658 34.8384 87.6975 34.0507 86.9098C33.2631 86.1222 32.1948 85.6797 31.0809 85.6797Z" fill="white"/>
<path d="M35.2796 110.881C34.834 110.881 34.4067 111.058 34.0917 111.373C33.7766 111.688 33.5996 112.115 33.5996 112.561C33.5996 113.006 33.7766 113.434 34.0917 113.749C34.4067 114.064 34.834 114.241 35.2796 114.241C35.7252 114.241 36.1525 114.064 36.4676 113.749C36.7826 113.434 36.9596 113.006 36.9596 112.561C36.9596 112.115 36.7826 111.688 36.4676 111.373C36.1525 111.058 35.7252 110.881 35.2796 110.881Z" fill="#F1BC19"/>
<path d="M134.401 55.4395C133.955 55.4395 133.528 55.6165 133.213 55.9315C132.898 56.2466 132.721 56.6739 132.721 57.1195C132.721 57.565 132.898 57.9923 133.213 58.3074C133.528 58.6225 133.955 58.7995 134.401 58.7995C134.846 58.7995 135.274 58.6225 135.589 58.3074C135.904 57.9923 136.081 57.565 136.081 57.1195C136.081 56.6739 135.904 56.2466 135.589 55.9315C135.274 55.6165 134.846 55.4395 134.401 55.4395Z" fill="white"/>
<path d="M63.6699 75.0938H68.8779V96.0938H63.6699V75.0938Z" fill="#78CDD4"/>
<path d="M63.0002 95.7596C62.4962 95.7596 62.1602 95.4236 62.1602 94.9196V76.4396C62.1602 75.9356 62.4962 75.5996 63.0002 75.5996C63.5042 75.5996 63.8402 75.9356 63.8402 76.4396V94.9196C63.8402 95.4236 63.5042 95.7596 63.0002 95.7596ZM69.7202 95.7596C69.2162 95.7596 68.8802 95.4236 68.8802 94.9196V76.4396C68.8802 75.9356 69.2162 75.5996 69.7202 75.5996C70.2242 75.5996 70.5602 75.9356 70.5602 76.4396V94.9196C70.5602 95.4236 70.2242 95.7596 69.7202 95.7596Z" fill="#472B29"/>
<path d="M75.9355 71.4004L78.8403 65.1549L103.67 76.7031L100.765 82.9487L75.9355 71.4004Z" fill="#78CDD4"/>
<path d="M96.7718 81.6492C96.6038 81.6492 96.6038 81.6492 96.4358 81.6492L79.6358 73.9212C79.1318 73.7532 78.9638 73.2492 79.2998 72.7452C79.4678 72.2412 79.9718 72.0732 80.4758 72.4092L97.2758 80.1372C97.7798 80.3052 97.9478 80.8092 97.6118 81.3132C97.4438 81.4812 97.1078 81.6492 96.7718 81.6492Z" fill="#472B29"/>
<path d="M99.6222 75.5999C99.4542 75.5999 99.4542 75.5999 99.2862 75.5999L88.5342 70.5599C88.0302 70.3919 87.8622 69.8879 88.1982 69.3839C88.3662 68.8799 88.8702 68.7119 89.3742 69.0479L100.126 74.0879C100.63 74.2559 100.798 74.7599 100.462 75.2639C100.294 75.4319 99.9582 75.5999 99.6222 75.5999Z" fill="#472B29"/>
<path d="M78.8086 97.1191L104.248 85.2875L107.223 91.6853L81.7842 103.517L78.8086 97.1191Z" fill="#78CDD4"/>
<path d="M88.2008 101.136C87.8648 101.136 87.5288 100.968 87.3608 100.632C87.1928 100.128 87.3608 99.7916 87.6968 99.4556L99.1208 94.0796C99.6248 93.9116 99.9608 94.0796 100.297 94.4156C100.465 94.9196 100.297 95.2556 99.9608 95.5916L88.5368 100.968C88.3688 100.968 88.2008 101.136 88.2008 101.136Z" fill="#472B29"/>
<path d="M79.9704 97.4368C79.6344 97.4368 79.2984 97.2688 79.1304 96.9328C78.9624 96.4288 79.1304 96.0928 79.4664 95.7568L96.2664 88.0288C96.7704 87.8608 97.1064 88.0288 97.4424 88.3648C97.7784 88.7008 97.4424 89.2048 97.1064 89.5408L80.3064 97.2688C80.3064 97.4368 80.1384 97.4368 79.9704 97.4368Z" fill="#472B29"/>
<path d="M111.718 68.373C109.556 68.373 107.415 68.7989 105.417 69.6263C103.42 70.4537 101.605 71.6664 100.076 73.1952C98.5473 74.7241 97.3345 76.539 96.5072 78.5365C95.6798 80.5341 95.2539 82.675 95.2539 84.837C95.2539 86.9991 95.6798 89.14 96.5072 91.1375C97.3345 93.1351 98.5473 94.95 100.076 96.4789C101.605 98.0077 103.42 99.2204 105.417 100.048C107.415 100.875 109.556 101.301 111.718 101.301C113.88 101.301 116.021 100.875 118.018 100.048C120.016 99.2204 121.831 98.0077 123.36 96.4789C124.889 94.95 126.101 93.1351 126.929 91.1375C127.756 89.14 128.182 86.9991 128.182 84.837C128.182 82.675 127.756 80.5341 126.929 78.5365C126.101 76.539 124.889 74.7241 123.36 73.1952C121.831 71.6664 120.016 70.4537 118.018 69.6263C116.021 68.7989 113.88 68.373 111.718 68.373Z" fill="#78CDD4"/>
<path d="M111.72 69.5512C120.12 69.5512 127.008 76.4392 127.008 84.8392C127.008 93.2392 120.12 100.127 111.72 100.127C103.32 100.127 96.4321 93.2392 96.4321 84.8392C96.4321 76.4392 103.32 69.5512 111.72 69.5512ZM111.72 67.1992C101.976 67.1992 94.0801 75.0952 94.0801 84.8392C94.0801 94.5832 101.976 102.479 111.72 102.479C121.464 102.479 129.36 94.5832 129.36 84.8392C129.36 75.0952 121.464 67.1992 111.72 67.1992Z" fill="#472B29"/>
<path d="M111.721 95.7599C105.673 95.7599 100.801 90.8879 100.801 84.8399C100.801 78.7919 105.673 73.9199 111.721 73.9199C112.225 73.9199 112.561 74.2559 112.561 74.7599C112.561 75.2639 112.225 75.5999 111.721 75.5999C106.681 75.5999 102.481 79.7999 102.481 84.8399C102.481 89.8799 106.681 94.0799 111.721 94.0799C116.761 94.0799 120.961 89.8799 120.961 84.8399C120.961 84.3359 121.297 83.9999 121.801 83.9999C122.305 83.9999 122.641 84.3359 122.641 84.8399C122.641 90.8879 117.769 95.7599 111.721 95.7599ZM120.793 81.1439C120.457 81.1439 120.121 80.9759 120.121 80.6399C119.281 78.9599 117.937 77.6159 116.257 76.6079C115.921 76.4399 115.753 75.9359 115.921 75.4319C116.089 75.0959 116.593 74.9279 117.097 75.0959C119.113 76.1039 120.625 77.7839 121.633 79.7999C121.801 80.1359 121.633 80.6399 121.297 80.9759C120.961 81.1439 120.961 81.1439 120.793 81.1439Z" fill="#472B29"/>
<path d="M66.3585 46.5332C61.992 46.5332 57.8043 48.2678 54.7167 51.3554C51.6291 54.443 49.8945 58.6307 49.8945 62.9972C49.8945 67.3637 51.6291 71.5514 54.7167 74.639C57.8043 77.7266 61.992 79.4612 66.3585 79.4612C70.7251 79.4612 74.9127 77.7266 78.0003 74.639C81.0879 71.5514 82.8225 67.3637 82.8225 62.9972C82.8225 58.6307 81.0879 54.443 78.0003 51.3554C74.9127 48.2678 70.7251 46.5332 66.3585 46.5332Z" fill="#78CDD4"/>
<path d="M66.3607 47.7114C74.7607 47.7114 81.6487 54.5994 81.6487 62.9994C81.6487 71.3994 74.7607 78.2874 66.3607 78.2874C57.9607 78.2874 51.0727 71.3994 51.0727 62.9994C51.0727 54.5994 57.9607 47.7114 66.3607 47.7114ZM66.3607 45.3594C56.6167 45.3594 48.7207 53.2554 48.7207 62.9994C48.7207 72.7434 56.6167 80.6394 66.3607 80.6394C76.1047 80.6394 84.0007 72.7434 84.0007 62.9994C84.0007 53.2554 76.1047 45.3594 66.3607 45.3594Z" fill="#472B29"/>
<path d="M66.3595 73.9201C60.3115 73.9201 55.4395 69.0481 55.4395 63.0001C55.4395 56.9521 60.3115 52.0801 66.3595 52.0801C66.8635 52.0801 67.1995 52.4161 67.1995 52.9201C67.1995 53.4241 66.8635 53.7601 66.3595 53.7601C61.3195 53.7601 57.1195 57.9601 57.1195 63.0001C57.1195 68.0401 61.3195 72.2401 66.3595 72.2401C71.3995 72.2401 75.5995 68.0401 75.5995 63.0001C75.5995 62.4961 75.9355 62.1601 76.4395 62.1601C76.9435 62.1601 77.2795 62.4961 77.2795 63.0001C77.2795 69.0481 72.4075 73.9201 66.3595 73.9201ZM75.4315 59.3041C75.0955 59.3041 74.7595 59.1361 74.7595 58.8001C73.9195 57.1201 72.5755 55.7761 70.8955 54.7681C70.5595 54.6001 70.3915 54.0961 70.5595 53.5921C70.7275 53.2561 71.2315 53.0881 71.7355 53.2561C73.7515 54.2641 75.2635 55.9441 76.2715 57.9601C76.4395 58.2961 76.2715 58.8001 75.9355 59.1361C75.5995 59.3041 75.5995 59.3041 75.4315 59.3041Z" fill="#472B29"/>
<path d="M66.3585 91.8945C64.1964 91.8945 62.0555 92.3204 60.058 93.1478C58.0605 93.9752 56.2456 95.1879 54.7167 96.7167C53.1879 98.2456 51.9752 100.061 51.1478 102.058C50.3204 104.056 49.8945 106.196 49.8945 108.359C49.8945 110.521 50.3204 112.662 51.1478 114.659C51.9752 116.657 53.1879 118.472 54.7167 120C56.2456 121.529 58.0605 122.742 60.058 123.569C62.0555 124.397 64.1964 124.823 66.3585 124.823C68.5206 124.823 70.6615 124.397 72.659 123.569C74.6565 122.742 76.4715 121.529 78.0003 120C79.5292 118.472 80.7419 116.657 81.5693 114.659C82.3967 112.662 82.8225 110.521 82.8225 108.359C82.8225 106.196 82.3967 104.056 81.5693 102.058C80.7419 100.061 79.5292 98.2456 78.0003 96.7167C76.4715 95.1879 74.6565 93.9752 72.659 93.1478C70.6615 92.3204 68.5206 91.8945 66.3585 91.8945Z" fill="#78CDD4"/>
<path d="M66.3607 93.0727C74.7607 93.0727 81.6487 99.9607 81.6487 108.361C81.6487 116.761 74.7607 123.649 66.3607 123.649C57.9607 123.649 51.0727 116.761 51.0727 108.361C51.0727 99.9607 57.9607 93.0727 66.3607 93.0727ZM66.3607 90.7207C56.6167 90.7207 48.7207 98.6167 48.7207 108.361C48.7207 118.105 56.6167 126.001 66.3607 126.001C76.1047 126.001 84.0007 118.105 84.0007 108.361C84.0007 98.6167 76.1047 90.7207 66.3607 90.7207Z" fill="#472B29"/>
<path d="M66.3595 119.279C60.3115 119.279 55.4395 114.407 55.4395 108.359C55.4395 102.311 60.3115 97.4395 66.3595 97.4395C66.8635 97.4395 67.1995 97.7755 67.1995 98.2795C67.1995 98.7835 66.8635 99.1195 66.3595 99.1195C61.3195 99.1195 57.1195 103.319 57.1195 108.359C57.1195 113.399 61.3195 117.599 66.3595 117.599C71.3995 117.599 75.5995 113.399 75.5995 108.359C75.5995 107.855 75.9355 107.519 76.4395 107.519C76.9435 107.519 77.2795 107.855 77.2795 108.359C77.2795 114.407 72.4075 119.279 66.3595 119.279ZM75.4315 104.663C75.0955 104.663 74.7595 104.495 74.7595 104.159C73.9195 102.479 72.5755 101.135 70.8955 100.127C70.5595 99.9595 70.3915 99.4555 70.5595 98.9515C70.7275 98.4475 71.2315 98.4475 71.7355 98.6155C73.7515 99.6235 75.2635 101.303 76.2715 103.319C76.4395 103.655 76.2715 104.159 75.9355 104.495C75.5995 104.663 75.5995 104.663 75.4315 104.663Z" fill="#472B29"/>
</g>
<defs>
<filter id="filter0_ddd_9330_47515" x="-16" y="-14" width="200" height="200" filterUnits="userSpaceOnUse" color-interpolation-filters="sRGB">
<feFlood flood-opacity="0" result="BackgroundImageFix"/>
<feColorMatrix in="SourceAlpha" type="matrix" values="0 0 0 0 0 0 0 0 0 0 0 0 0 0 0 0 0 0 127 0" result="hardAlpha"/>
<feMorphology radius="1" operator="dilate" in="SourceAlpha" result="effect1_dropShadow_9330_47515"/>
<feOffset dy="2"/>
<feGaussianBlur stdDeviation="7.5"/>
<feColorMatrix type="matrix" values="0 0 0 0 0.564706 0 0 0 0 0.643137 0 0 0 0 0.682353 0 0 0 0.11 0"/>
<feBlend mode="normal" in2="BackgroundImageFix" result="effect1_dropShadow_9330_47515"/>
<feColorMatrix in="SourceAlpha" type="matrix" values="0 0 0 0 0 0 0 0 0 0 0 0 0 0 0 0 0 0 127 0" result="hardAlpha"/>
<feMorphology radius="1" operator="dilate" in="SourceAlpha" result="effect2_dropShadow_9330_47515"/>
<feOffset dy="7"/>
<feGaussianBlur stdDeviation="5"/>
<feColorMatrix type="matrix" values="0 0 0 0 0.564706 0 0 0 0 0.643137 0 0 0 0 0.682353 0 0 0 0.14 0"/>
<feBlend mode="normal" in2="effect1_dropShadow_9330_47515" result="effect2_dropShadow_9330_47515"/>
<feColorMatrix in="SourceAlpha" type="matrix" values="0 0 0 0 0 0 0 0 0 0 0 0 0 0 0 0 0 0 127 0" result="hardAlpha"/>
<feMorphology radius="2" operator="erode" in="SourceAlpha" result="effect3_dropShadow_9330_47515"/>
<feOffset dy="4"/>
<feGaussianBlur stdDeviation="2.5"/>
<feColorMatrix type="matrix" values="0 0 0 0 0.564706 0 0 0 0 0.643137 0 0 0 0 0.682353 0 0 0 0.25 0"/>
<feBlend mode="normal" in2="effect2_dropShadow_9330_47515" result="effect3_dropShadow_9330_47515"/>
<feBlend mode="normal" in="SourceGraphic" in2="effect3_dropShadow_9330_47515" result="shape"/>
</filter>
</defs>
</svg>
